<svg xmlns="http://www.w3.org/2000/svg" enable-background="new 0 0 68 68" viewBox="0 0 68 68" id="palm-tree">
  <path fill="#96C93D" d="M39.43025,15.40736c0,0,6.39035,4.14023,4.51024,11.47056c0,0-2.72527-4.79546-5.65114-7.93679
				c-2.18475-2.34564-5.92295-2.39546-8.20351-0.14285c-0.06295,0.06218-0.12499,0.12528-0.18611,0.18928
				c-1.27002,1.33002-2.15007,3.05014-2.45008,4.9502c-0.34004,2.1701-0.53006,4.50023-0.24006,6.33034
				c0,0-4.51018-7.90043-2.25011-13.35066c0,0-11.66057,5.07027-12.97064,18.61094c0,0-10.34056-19.741,12.03059-24.63127
				c0,0-10.14047-4.31022-19.16096-2.26013c0.65006-0.47,17.28092-12.11061,26.68136,2.26013
				c0,0,10.71057-15.04075,23.68121-6.01032c0,0-13.72068,3.38018-15.41076,7.33039c0,0,21.99112-6.39034,23.3112,14.66073
				C63.12148,26.87792,51.46084,12.77722,39.43025,15.40736z"></path>
  <path fill="#72B844" d="M40.08857,14.74214c7.31695-2.42338,18.53801,3.54527,18.53801,3.54527
				c-4.1054-5.77999-13.40721-5.8317-17.678-5.51673c-1.28117,0.09448-2.07828-1.32911-1.35264-2.38918
				c2.12146-3.09918,7.33478-6.07212,7.33478-6.07212c-5.43867-0.90043-12.94613,7.58551-15.18565,10.29345
				c-0.28404,0.34345-0.80992,0.29412-1.03471-0.09073c-0.98342-1.68359-6.01792-5.70053-6.01792-5.70053
				c1.7857,2.13732,1.80325,3.25496,0.29678,3.67239c-4.30007,1.19151-9.11361,3.96397-10.86936,8.06612
				c-2.25584,5.27056-2.34801,10.85945-2.34801,10.85945c1.49762-10.6261,10.6261-15.19031,10.6261-15.19031
				c3.76782-2.66644,2.17449,6.77445,3.82853,9.97392c0.07665-1.08427,0.54836-3.37766,0.79168-4.50214
				c0.73418-3.39297,3.6662-6.00314,7.13751-5.96778c4.51762,0.04601,7.14108,4.41837,7.14108,4.41837
				c-0.15688-0.70583-1.08987-1.99376-1.89816-3.01029C38.74762,16.31264,39.09568,15.07099,40.08857,14.74214z"></path>
  <path fill="#F37D7F" d="M40.58909,52.55923c-0.03998,4.39024-0.33998,8.88046-1.21002,13.44069H25.70832
				c2.06016-4.22018,3.4602-9.16044,4.42027-14.26074c1.07006-5.50028,1.44008-11.26059,1.6401-17.03084
				c0.18-5.59031-0.01001-11.23062-0.38002-16.87086c1.31006-0.71006,2.84011-0.87004,4.25022-0.49002
				c1.38007,5.56028,2.60011,11.20053,3.45013,16.95082C39.94911,40.26862,40.6591,46.31892,40.58909,52.55923z"></path>
  <path fill="#EF3F3E" d="M40.58909,52.55923c-0.03998,4.39024-0.33998,8.88046-1.21002,13.44069H25.70832
				c0.50002-1.02007,0.96007-2.09007,1.38008-3.19016c13.96074-4.76026,7.94086-38.16345,6.55078-45.64382
				c0.46004,0.01001,1.55969,0.06152,1.99971,0.18152c1.38007,5.56028,2.60011,11.20053,3.45013,16.95082
				C39.94911,40.26862,40.6591,46.31892,40.58909,52.55923z"></path>
  <path d="M64.10625,26.61353c-0.98389-14.18359-11.17431-16.30859-17.18066-16.30859c-1.50391,0-2.88721,0.12451-4.04053,0.28369
		c3.12207-1.93506,8.78369-3.7959,12.5752-4.73096c0.38135-0.09375,0.67236-0.40234,0.74414-0.78857
		c0.07129-0.38623-0.08984-0.77832-0.41211-1.00293c-2.92236-2.03467-5.98047-3.06592-9.09033-3.06592
		c-7.4082,0-13.03662,5.74951-15.11426,8.22119c-3.21631-4.30078-7.44287-6.479-12.58105-6.479
		c-7.61182,0-14.44629,4.87646-14.73389,5.08398c-0.38525,0.27832-0.521,0.78955-0.3252,1.22266
		c0.1958,0.43311,0.66895,0.66895,1.13281,0.56299c1.54198-0.35059,3.23145-0.52832,5.02148-0.52832
		c4.07715,0,7.97363,0.91895,10.52832,1.69141c-5.26807,1.7168-8.85254,4.55371-10.67383,8.45801
		c-3.55469,7.61865,0.95313,16.38965,1.14697,16.75928c0.1748,0.33398,0.51903,0.53613,0.88525,0.53613
		c0.06396,0,0.12793-0.00586,0.19238-0.01855c0.43408-0.08496,0.76074-0.44482,0.80322-0.88525
		c0.91357-9.44092,7.18311-14.62158,10.43213-16.69971c-0.68555,5.42725,2.75635,11.54395,2.9248,11.83887
		c0.23975,0.41992,0.74561,0.60791,1.2002,0.44775c0.45557-0.16016,0.73193-0.62305,0.65625-1.1001
		c-0.23486-1.47949-0.15381-3.50488,0.23975-6.01758c0.25403-1.60663,0.97437-3.07593,2.06976-4.27435
		c0.80789,13.99958,0.46002,33.1258-5.6972,45.74164c-0.32282,0.66022,0.15635,1.43848,0.89844,1.43848h13.6709
		c0.47993,0,0.90444-0.40444,0.98242-0.8125c1.79003-9.38248,1.41777-19.1312,0.19086-28.56995
		c-0.00061-0.00671-0.00183-0.013-0.00256-0.01971c-0.15137-1.16364-0.30878-2.31586-0.4715-3.4455
		c-0.67877-4.59137-1.62463-9.37579-2.94708-14.90186c0.14417,0.1214,0.29547,0.23236,0.42609,0.37256
		c2.80957,3.01611,5.4873,7.70215,5.51416,7.74902c0.20166,0.35449,0.59766,0.55225,1.00195,0.49707
		c0.40381-0.0542,0.73438-0.34814,0.83594-0.74268c1.35205-5.27246-1.24072-9.0625-3.15332-11.02588
		c7.56167-0.4067,16.14297,6.0454,20.59473,11.41504c0.19482,0.23535,0.49805,0.37207,0.77344,0.3623
		c0.58057,0.03662,1.01757-0.44189,1.01709-1C64.1414,26.78638,64.1292,26.69751,64.10625,26.61353z M38.61571,38.23114
		c0.29285,2.28729,0.54938,4.63367,0.72607,7.02936l-6.81769-5.31976c0.10944-1.79724,0.18683-3.54724,0.24426-5.20026
		c0.01324-0.41229,0.02179-0.83313,0.03119-1.2525L38.61571,38.23114z M30.0902,56.56274
		c0.37341-1.47906,0.71631-3.01929,1.01996-4.63281c0.07587-0.38995,0.13928-0.78339,0.20825-1.17535l8.13404,6.12189
		c-0.13989,2.55707-0.38824,4.92413-0.75458,7.20087L30.0902,56.56274z M31.67638,48.52124
		c0.29919-2.07147,0.51856-4.14343,0.67932-6.17462l7.14783,5.57733c0.07013,1.52661,0.10303,3.06952,0.08563,4.6261
		c-0.00586,0.64716-0.01862,1.27808-0.03564,1.89966L31.67638,48.52124z M29.51189,58.71307l7.20111,6.28668h-9.44025
		C28.10594,63.09955,28.85234,60.99658,29.51189,58.71307z M38.09941,34.44116c0.04236,0.29401,0.08313,0.59412,0.125,0.8905
		l-5.38934-4.39508c0.01483-3.8125-0.11865-7.9303-0.40424-12.47278c0.82435-0.31316,1.59315-0.36519,2.39185-0.24969
		C36.32531,24.32935,37.36913,29.50189,38.09941,34.44116z M39.21709,14.43042c-0.39355,0.08594-0.6958,0.40039-0.76904,0.79639
		c-0.07275,0.396,0.09961,0.79785,0.43652,1.01855c0.20068,0.13135,4.2251,2.83105,4.39697,7.64697
		c-1.08545-1.6748-2.63281-3.88525-4.26025-5.63281c-2.53115-2.71759-6.91706-2.85991-9.64014-0.17139l-0.20459,0.20898
		c-1.44873,1.51709-2.3877,3.41357-2.71484,5.48584c-0.0918,0.58447-0.16748,1.14648-0.22705,1.68555
		c-0.81836-2.51123-1.38867-5.66699-0.35156-8.16846c0.15625-0.37646,0.06787-0.81006-0.22266-1.09619
		c-0.2915-0.28564-0.72705-0.36475-1.1001-0.20361c-0.45264,0.19678-10.16943,4.54932-12.95361,15.82178
		c-0.93555-3.02197-1.74609-7.66357,0.1665-11.75293c1.89111-4.04395,6.0835-6.80127,12.45947-8.19482
		c0.42529-0.09326,0.7417-0.4502,0.78223-0.88379s-0.20361-0.84326-0.60449-1.01367
		c-0.27783-0.11816-6.89111-2.89307-14.30859-2.89307c-0.16406,0-0.32666,0.00146-0.48926,0.00439
		c2.51318-1.17383,5.89746-2.3457,9.39404-2.3457c4.85205,0,8.78711,2.25488,11.69629,6.70215
		c0.18115,0.27637,0.48682,0.4458,0.81738,0.45264c0.32129,0.00391,0.64307-0.15088,0.83399-0.41992
		c0.06055-0.08496,6.13184-8.47705,14.34766-8.47705c2.02148,0,4.03174,0.5127,5.99951,1.52832
		c-4.15967,1.19238-12.37061,3.9292-13.81055,7.29492c-0.15186,0.35547-0.08545,0.76709,0.1709,1.05664
		s0.66016,0.40381,1.02734,0.29736c0.03027-0.00879,3.0459-0.87256,6.83643-0.87256c5.93506,0,13.04102,2.10742,14.83154,11.62939
		C55.82053,17.99855,47.38929,12.64275,39.21709,14.43042z"></path>
</svg>
